<?xml version="1.0" encoding="UTF-8" standalone="no"?>
<svg width="41px" height="41px" viewBox="0 0 41 41" version="1.1" xmlns="http://www.w3.org/2000/svg" xmlns:xlink="http://www.w3.org/1999/xlink" xmlns:sketch="http://www.bohemiancoding.com/sketch/ns">
    <!-- Generator: Sketch 3.3.3 (12081) - http://www.bohemiancoding.com/sketch -->
    <title>partly-cloudy</title>
    <desc>Created with Sketch.</desc>
    <defs></defs>
    <g id="Page-1" stroke="none" stroke-width="1" fill="none" fill-rule="evenodd" sketch:type="MSPage">
        <g id="partly-cloudy" sketch:type="MSArtboardGroup">
            <g id="04" sketch:type="MSLayerGroup" transform="translate(1.000000, 1.000000)">
                <rect id="Rectangle" sketch:type="MSShapeGroup" x="0" y="0" width="39" height="39"></rect>
                <g id="sun" transform="translate(0.780000, 0.000000)" sketch:type="MSShapeGroup">
                    <path d="M19.5071803,18.1107685 C19.9899702,17.385272 20.28,16.5239007 20.28,15.6 C20.28,13.0153074 18.0100837,10.92 15.6,10.92 C12.4099163,10.92 10.14,13.0153074 10.14,15.6 C10.14,17.7316047 11.6838509,19.530361 14.0144649,20.095491 C15.6272783,19.0990032 17.4859784,18.4113666 19.5071803,18.1107685 L19.5071803,18.1107685 Z" id="O" stroke="#777677" stroke-width="4"></path>
                    <path d="M13.2785529,1.65808719 C13.2785529,0.74235092 14.0152882,0 14.938372,0 C15.8550648,0 16.5981911,0.734736077 16.5981911,1.65808719 L16.5981911,3.32137014 C16.5981911,4.2371064 15.8614558,4.97945732 14.938372,4.97945732 C14.0216792,4.97945732 13.2785529,4.24472125 13.2785529,3.32137014 L13.2785529,1.65808719 Z M23.1552821,4.3741232 C23.8028054,3.72659987 24.8486773,3.72262904 25.5013961,4.37534785 C26.1495958,5.02354753 26.1555286,6.06855406 25.5026207,6.72146189 L24.3265021,7.89758054 C23.6789788,8.54510387 22.6331069,8.5490747 21.9803881,7.89635589 C21.3321884,7.24815621 21.3262556,6.20314968 21.9791634,5.55024185 L23.1552821,4.3741232 Z M28.2186568,13.2785529 C29.134393,13.2785529 29.8767439,14.0152882 29.8767439,14.938372 C29.8767439,15.8550648 29.1420079,16.5981911 28.2186568,16.5981911 L26.5553738,16.5981911 C25.6396375,16.5981911 24.8972866,15.8614558 24.8972866,14.938372 C24.8972866,14.0216792 25.6320227,13.2785529 26.5553738,13.2785529 L28.2186568,13.2785529 Z M6.72146189,25.5026207 C6.07393857,26.1501441 5.02806666,26.1541149 4.37534785,25.5013961 C3.72714817,24.8531964 3.72121537,23.8081899 4.3741232,23.1552821 L5.55024185,21.9791634 C6.19776517,21.3316401 7.24363708,21.3276692 7.89635589,21.9803881 C8.54455557,22.6285877 8.55048837,23.6735943 7.89758054,24.3265021 L6.72146189,25.5026207 Z M1.65808719,16.5981911 C0.74235092,16.5981911 7.52842338e-16,15.8614558 5.83274596e-16,14.938372 C4.14880864e-16,14.0216792 0.734736077,13.2785529 1.65808719,13.2785529 L3.32137014,13.2785529 C4.2371064,13.2785529 4.97945732,14.0152882 4.97945732,14.938372 C4.97945732,15.8550648 4.24472125,16.5981911 3.32137014,16.5981911 L1.65808719,16.5981911 Z M4.3741232,6.72146189 C3.72659987,6.07393857 3.72262904,5.02806666 4.37534785,4.37534785 C5.02354753,3.72714817 6.06855406,3.72121537 6.72146189,4.3741232 L7.89758054,5.55024185 C8.54510387,6.19776517 8.5490747,7.24363708 7.89635589,7.89635589 C7.24815621,8.54455557 6.20314968,8.55048837 5.55024185,7.89758054 L4.3741232,6.72146189 Z" id="light" fill="#777677"></path>
                </g>
                <path d="M10.14,39 C7.12452527,39 4.68,36.5554747 4.68,33.54 C4.68,30.5245253 7.12452527,28.08 10.14,28.08 C10.1483738,28.08 10.1567433,28.0800189 10.1651083,28.0800565 C10.5418801,22.2636853 15.1171772,17.94 21.06,17.94 C25.283414,17.94 29.0759251,20.7967266 30.549201,24.9897664 C30.7634914,24.9700677 30.98057,24.96 31.2,24.96 C35.0770389,24.96 38.22,28.1029611 38.22,31.98 C38.22,35.5933918 35.4899614,38.569149 31.98,38.9571556 L31.98,39 L10.1400002,39 Z" id="cloud" stroke="#777677" stroke-width="4" stroke-linecap="round" stroke-linejoin="round" sketch:type="MSShapeGroup"></path>
            </g>
        </g>
    </g>
</svg>