<?xml version="1.0" encoding="utf-8"?>
<!-- Generator: Adobe Illustrator 19.0.0, SVG Export Plug-In . SVG Version: 6.00 Build 0)  -->
<svg version="1.1" id="Layer_1" xmlns="http://www.w3.org/2000/svg" xmlns:xlink="http://www.w3.org/1999/xlink" x="0px" y="0px"
	 viewBox="94 -4 800 800" style="enable-background:new 94 -4 800 800;" xml:space="preserve">
<style type="text/css">
	.st0{fill:#2CB456;}
	.st1{fill:#2CB355;}
	.st2{fill:#77C269;}
	.st3{fill:#18A049;}
	.st4{fill:#BFE1BF;}
	.st5{fill:#6EC06B;}
	.st6{fill:#3DAA55;}
	.st7{fill:#98CD9A;}
	.st8{fill:#5AB95E;}
	.st9{fill:#2CAA50;}
	.st10{fill:#7DC483;}
	.st11{fill:#3EB45A;}
	.st12{fill:#54B85F;}
	.st13{fill:#3AAE56;}
	.st14{fill:#FFFFFF;}
	.st15{fill:#46B75E;}
</style>
<g id="Layer_1_1_">
</g>
<g id="Layer_2">
</g>
<g id="Layer_3">
</g>
<g id="Layer_4">
</g>
<g id="Layer_5">
</g>
<g id="Layer_6">
</g>
<g id="Layer_7">
</g>
<g id="Layer_8">
</g>
<g id="Layer_9">
</g>
<g id="Layer_10">
</g>
<g id="Layer_11">
</g>
<g id="fractured">
	<g id="colors">
	</g>
	<g id="Layer_18">
	</g>
	<g id="Layer_19">
	</g>
	<g id="Layer_20">
	</g>
	<g id="Layer_21">
	</g>
	<g id="Layer_22">
	</g>
	<g id="Layer_23">
	</g>
	<g id="Layer_24">
	</g>
	<g id="Layer_25">
	</g>
	<g id="Layer_26">
	</g>
	<g id="Layer_27">
	</g>
	<g id="Layer_28">
	</g>
	<g id="Layer_29">
	</g>
	<g id="Layer_30">
	</g>
	<g id="Layer_31">
	</g>
	<g id="Layer_32">
	</g>
</g>
<g id="Layer_36">
</g>
<g id="Layer_12">
</g>
<g id="Layer_13">
</g>
<g id="Layer_14">
</g>
<g id="Layer_15">
</g>
<g id="Layer_35">
	<g>
		<path class="st0" d="M473.8,119.9c-8.7,1.1-14.4,13-14.4,13l-237.5,435c3,3.8,65,146.4,273,146.4c173.3,0,283.5-146.4,283.5-146.4
			L490.7,132.6C490.7,132.6,482.8,118.8,473.8,119.9"/>
		<path class="st0" d="M458.7,99.6c4.3-6.2,15.7-19.5,30.4,0c6.1,6.1,188.7,273.6,341.4,498.6c32.9-56.8,49.1-126.4,48.9-196.7
			C878.5,189.7,705.8,18.6,493.4,19.4C281,20.2,109.5,192.5,110.3,404.3c0.3,71.9,20.4,139.2,55.1,196.6
			C276.6,405.6,421.7,153.1,458.7,99.6"/>
		<path class="st1" d="M146.6,565.7c0.3,0.6,5.2,14.1,17,33.7c8.8,14.7,21.1,33.1,37.5,52.4c12.3,14.5,26.9,29.5,44,43.9
			c25.6,21.6,56.9,41.8,94.4,56.6c37.5,14.8,81.2,24.1,131.3,24.1c76.8,0,139.4-14,189.8-35.4c37.8-16,68.8-36.1,93.8-57.3
			c37.6-31.7,64.4-62,79.3-88.1c14.9-26.2,19.6-45.4,19.9-46.4l-31.6-9l14.3,4.3l-14.3-4.4l0,0.1l14.3,4.3l-14.3-4.4l0,0l3.3,1
			l-3.3-1l0,0l3.3,1l-3.3-1c0,0-4,13.1-14.5,32.5c-7.8,14.6-21.8,29-37.9,47.9c-12,14.2-26.7,28.9-44.3,43
			c-26.5,21.1-59.7,40.7-101.5,55.2c-41.8,14.4-92.2,23.7-153,23.7c-27.2,0-40.6-0.6-63.3-5.8c-39.8-9.1-84.7-27.3-112.7-46
			c-20.9-14-38.8-29.7-53.8-45.3c-22.5-23.4-38.5-46.8-48.8-64.2c-5.1-8.7-8.9-15.9-11.3-20.8c-1.2-2.5-2.1-4.4-2.6-5.6
			c-0.3-0.6-0.5-1.1-0.6-1.4c-0.1-0.1-0.1-0.2-0.1-0.3l0,0l-3,1.2l3-1.2l-3,1.2l3-1.2l0,0l-12.9,5.3l12.9-5.3l0-0.1l-12.9,5.3
			l12.9-5.3L146.6,565.7"/>
		<path class="st2" d="M222.4,567.4L483.6,449l6.9,262.9c0,0-85,4.4-166.2-41.8C247,626.2,222.4,567.4,222.4,567.4"/>
		<path class="st3" d="M778.3,567.9L483.1,449.5l6.9,262.9c0,0,87.7,5.9,164.1-40.7C745.5,615.9,778.3,567.9,778.3,567.9"/>
		<path class="st4" d="M475.5,119.5l0,0.4c8.3,0.6,15.2,12.7,15.2,12.7l287.4,434.9l0.7-0.2L665.3,395.5L522.7,179.8l-8.4-12.7
			l-12.9-19.5l-6.1-9.2l-7.2-10.6c0,0-3.4-4.5-7.2-6.6C479.1,120,476.8,119.6,475.5,119.5 M474.3,119.4l0,0.3
			c0.4-0.1,0.7-0.2,0.9-0.3C474.7,119.4,474.3,119.4,474.3,119.4"/>
		<polyline class="st5" points="483.6,449.5 483.6,449.7 483.6,449.7 483.6,449.5 		"/>
		<polyline class="st6" points="483.6,449.7 488.3,638.9 777.7,567.6 483.6,449.7 483.6,449.7 		"/>
		<path class="st7" d="M474.3,119.7c-0.2,0.1-0.5,0.1-0.7,0.2l0.2,0c0.2,0,0.4,0,0.5,0L474.3,119.7 M475.5,119.4c0,0-0.1,0-0.2,0.1
			L475.5,119.4L475.5,119.4"/>
		<polyline class="st8" points="483.2,449.2 222.4,567.4 488.1,638.9 483.1,449.5 483.2,449.5 483.2,449.2 		"/>
		<polyline class="st9" points="483.1,449.5 488.1,638.9 488.3,638.9 483.2,449.5 483.1,449.5 		"/>
		<path class="st10" d="M475.2,119.5c-0.2,0.1-0.5,0.1-0.9,0.3l0,0.2c0.2,0,0.4,0,0.5,0c0.2,0,0.4,0,0.6,0l0-0.4L475.2,119.5"/>
		<path class="st11" d="M474.9,119.8c-0.2,0-0.4,0-0.5,0l8.8,329.3l0.4-0.2l0,0.5l-8.1-329.6C475.3,119.9,475.1,119.8,474.9,119.8"
			/>
		<polyline class="st12" points="483.6,449 483.2,449.2 483.2,449.5 483.6,449.7 483.6,449.5 483.6,449 		"/>
		<polyline class="st13" points="483.2,449.5 488.3,638.9 483.6,449.7 483.2,449.5 		"/>
		<path class="st14" d="M490.3,178.3c-11-12.5-22.4,0.3-22.4,0.3L349.7,379.4l65.5-31.2l29.4,42.6l40.2-35l33.2,65.8l27-68.7
			l82,31.9C627,384.8,502.9,190.9,490.3,178.3z"/>
		<path class="st15" d="M490.7,133.8c0,0-6.9-12.1-15.2-12.7l1.3,52.1c3.9-1,8.8,1,13.5,6.3C502.9,192.2,627,386,627,386l-82-31.9
			l-27,68.7L484.8,357l-3.5,3l2.2,90.7l0,0.2l294.1,117.9l0.4-0.1L490.7,133.8z"/>
	</g>
</g>
</svg>
