<?xml version="1.0" encoding="UTF-8" standalone="no"?>
<svg width="41px" height="41px" viewBox="0 0 41 41" version="1.1" xmlns="http://www.w3.org/2000/svg" xmlns:xlink="http://www.w3.org/1999/xlink" xmlns:sketch="http://www.bohemiancoding.com/sketch/ns">
    <!-- Generator: Sketch 3.3.3 (12081) - http://www.bohemiancoding.com/sketch -->
    <title>rain</title>
    <desc>Created with Sketch.</desc>
    <defs></defs>
    <g id="Page-1" stroke="none" stroke-width="1" fill="none" fill-rule="evenodd" sketch:type="MSPage">
        <g id="rain" sketch:type="MSArtboardGroup">
            <g id="02" sketch:type="MSLayerGroup" transform="translate(1.000000, 1.000000)">
                <rect id="Rectangle" sketch:type="MSShapeGroup" x="0" y="0" width="37.1860465" height="37.1860465"></rect>
                <path d="M6.69348837,23.7990698 C3.40752255,23.7990698 0.74372093,21.1352681 0.74372093,17.8493023 C0.74372093,14.5633365 3.40752255,11.8995349 6.69348837,11.8995349 C6.70030785,11.8995349 6.70712466,11.8995464 6.71393876,11.8995693 C7.06589672,5.52878705 11.9168195,0.74372093 17.8493023,0.74372093 C22.5985482,0.74372093 26.6546445,3.81037132 28.2642723,8.30222746 C28.7430619,8.22235475 29.238909,8.18093023 29.7488372,8.18093023 C33.6898069,8.18093023 37.1860465,11.6771699 37.1860465,16.3618605 C37.1860465,20.3028301 33.6898069,23.7990698 29.7488372,23.7990698 L6.69348837,23.7990698 Z" id="cloud" stroke="#777677" stroke-width="4" stroke-linecap="round" stroke-linejoin="round" sketch:type="MSShapeGroup"></path>
                <g id="rain" transform="translate(2.974884, 21.731163)" fill="#777677" sketch:type="MSShapeGroup">
                    <path d="M2.85408065,4.98521586 C3.19665692,4.04399531 4.2309635,3.55636286 5.17892856,3.90139393 L5.17892856,3.90139393 C6.12033034,4.24403616 6.60820163,5.27814363 6.26319807,6.22603313 L4.4017333,11.3403655 C4.05915704,12.2815861 3.02485046,12.7692185 2.0768854,12.4241875 L2.0768854,12.4241875 C1.13548362,12.0815452 0.647612326,11.0474378 0.992615887,10.0995483 L2.85408065,4.98521586 L2.85408065,4.98521586 Z" id="1"></path>
                    <path d="M11.6636521,1.54949346 C12.0047174,0.655018467 13.037799,0.19276362 13.9857641,0.522111454 L13.9857641,0.522111454 C14.9271659,0.849179034 15.4116934,1.84505084 15.0727696,2.73390994 L10.1037897,15.7655171 C9.76272448,16.6599921 8.72964283,17.122247 7.78167777,16.7928991 L7.78167777,16.7928991 C6.84027599,16.4658315 6.35574842,15.4699597 6.69467231,14.5811006 L11.6636521,1.54949346 L11.6636521,1.54949346 Z" id="2"></path>
                    <path d="M18.2980446,4.67688534 C18.6396692,3.82360721 19.6732044,3.38223185 20.6211694,3.69589645 L20.6211694,3.69589645 C21.5625712,4.00738939 22.0482461,4.95297303 21.707162,5.80490103 L17.9810252,15.1116982 C17.6394005,15.9649763 16.6058654,16.4063517 15.6579004,16.0926871 L15.6579004,16.0926871 C14.7164986,15.7811941 14.2308237,14.8356105 14.5719078,13.9836825 L18.2980446,4.67688534 L18.2980446,4.67688534 Z" id="3"></path>
                    <path d="M26.7429148,2.00932019 C27.0870184,1.19282373 28.1225632,0.768748655 29.0705282,1.06673003 L29.0705282,1.06673003 C30.01193,1.36264832 30.495298,2.26642656 30.1520322,3.0809351 L27.6756899,8.95685317 C27.3315862,9.77334963 26.2960415,10.1974247 25.3480764,9.89944333 L25.3480764,9.89944333 C24.4066747,9.60352505 23.9233066,8.6997468 24.2665725,7.88523826 L26.7429148,2.00932019 L26.7429148,2.00932019 Z" id="4"></path>
                    <path d="M30.7784116,8.95684951 C31.1121707,8.14459252 32.1204146,7.72395422 33.0446806,8.02193559 L33.0446806,8.02193559 C33.9625473,8.31785388 34.4384417,9.21041163 34.1023011,10.0284644 L32.8913558,12.9754972 C32.5575968,13.7877542 31.5493528,14.2083925 30.6250869,13.9104111 L30.6250869,13.9104111 C29.7072202,13.6144928 29.2313258,12.7219351 29.5674663,11.9038823 L30.7784116,8.95684951 L30.7784116,8.95684951 Z" id="5"></path>
                </g>
            </g>
        </g>
    </g>
</svg>