<?xml version="1.0" encoding="UTF-8" standalone="no"?>
<svg width="41px" height="41px" viewBox="0 0 41 41" version="1.1" xmlns="http://www.w3.org/2000/svg" xmlns:xlink="http://www.w3.org/1999/xlink" xmlns:sketch="http://www.bohemiancoding.com/sketch/ns">
    <!-- Generator: Sketch 3.3.3 (12081) - http://www.bohemiancoding.com/sketch -->
    <title>sunny</title>
    <desc>Created with Sketch.</desc>
    <defs></defs>
    <g id="Page-1" stroke="none" stroke-width="1" fill="none" fill-rule="evenodd" sketch:type="MSPage">
        <g id="sunny" sketch:type="MSArtboardGroup">
            <g id="01" sketch:type="MSLayerGroup" transform="translate(1.000000, 1.000000)">
                <rect id="Rectangle" sketch:type="MSShapeGroup" x="0" y="0" width="39" height="39"></rect>
                <g id="sun" fill="#777677" sketch:type="MSShapeGroup">
                    <path d="M19.5,26.52 L19.5,26.52 C23.3770389,26.52 26.52,23.3770389 26.52,19.5 C26.52,15.6229611 23.3770389,12.48 19.5,12.48 C15.6229611,12.48 12.48,15.6229611 12.48,19.5 C12.48,23.3770389 15.6229611,26.52 19.5,26.52 L19.5,26.52 Z M19.5,29.64 L19.5,29.64 C13.8998326,29.64 9.36,25.1001674 9.36,19.5 C9.36,13.8998326 13.8998326,9.36 19.5,9.36 C25.1001674,9.36 29.64,13.8998326 29.64,19.5 C29.64,25.1001674 25.1001674,29.64 19.5,29.64 L19.5,29.64 Z" id="O"></path>
                    <path d="M17.94,1.55851906 C17.94,0.697772749 18.6324291,0 19.5,0 C20.3615642,0 21.06,0.691630955 21.06,1.55851906 L21.06,4.68148094 C21.06,5.54222725 20.3675709,6.24 19.5,6.24 C18.6384358,6.24 17.94,5.54836905 17.94,4.68148094 L17.94,1.55851906 Z M31.0834563,5.71037058 C31.6920958,5.10173103 32.675117,5.09795252 33.2885822,5.71141777 C33.8978001,6.32063566 33.9026119,7.30356128 33.2896294,7.91654374 L31.0813619,10.1248113 C30.4727223,10.7334508 29.4897012,10.7372293 28.8762359,10.1237641 C28.267018,9.51454619 28.2622063,8.53162056 28.8751887,7.91863811 L31.0834563,5.71037058 Z M37.4414809,17.94 C38.3022273,17.94 39,18.6324291 39,19.5 C39,20.3615642 38.308369,21.06 37.4414809,21.06 L34.3185191,21.06 C33.4577727,21.06 32.76,20.3675709 32.76,19.5 C32.76,18.6384358 33.451631,17.94 34.3185191,17.94 L37.4414809,17.94 Z M33.2896294,31.0834563 C33.898269,31.6920958 33.9020475,32.675117 33.2885822,33.2885822 C32.6793643,33.8978001 31.6964387,33.9026119 31.0834563,33.2896294 L28.8751887,31.0813619 C28.2665492,30.4727223 28.2627707,29.4897012 28.8762359,28.8762359 C29.4854538,28.267018 30.4683794,28.2622063 31.0813619,28.8751887 L33.2896294,31.0834563 Z M21.06,37.4414809 C21.06,38.3022273 20.3675709,39 19.5,39 C18.6384358,39 17.94,38.308369 17.94,37.4414809 L17.94,34.3185191 C17.94,33.4577727 18.6324291,32.76 19.5,32.76 C20.3615642,32.76 21.06,33.451631 21.06,34.3185191 L21.06,37.4414809 Z M7.91654374,33.2896294 C7.30790419,33.898269 6.32488302,33.9020475 5.71141777,33.2885822 C5.10219987,32.6793643 5.09738813,31.6964387 5.71037058,31.0834563 L7.91863811,28.8751887 C8.52727766,28.2665492 9.51029883,28.2627707 10.1237641,28.8762359 C10.732982,29.4854538 10.7377937,30.4683794 10.1248113,31.0813619 L7.91654374,33.2896294 Z M1.55851906,21.06 C0.697772749,21.06 3.16892043e-16,20.3675709 1.57521859e-16,19.5 C-7.44918899e-19,18.6384358 0.691630955,17.94 1.55851906,17.94 L4.68148094,17.94 C5.54222725,17.94 6.24,18.6324291 6.24,19.5 C6.24,20.3615642 5.54836905,21.06 4.68148094,21.06 L1.55851906,21.06 Z M5.71037058,7.91654374 C5.10173103,7.30790419 5.09795252,6.32488302 5.71141777,5.71141777 C6.32063566,5.10219987 7.30356128,5.09738813 7.91654374,5.71037058 L10.1248113,7.91863811 C10.7334508,8.52727766 10.7372293,9.51029883 10.1237641,10.1237641 C9.51454619,10.732982 8.53162056,10.7377937 7.91863811,10.1248113 L5.71037058,7.91654374 Z" id="light"></path>
                </g>
            </g>
        </g>
    </g>
</svg>