<?xml version="1.0" encoding="UTF-8" standalone="no"?>
<svg width="41px" height="41px" viewBox="0 0 41 41" version="1.1" xmlns="http://www.w3.org/2000/svg" xmlns:xlink="http://www.w3.org/1999/xlink" xmlns:sketch="http://www.bohemiancoding.com/sketch/ns">
    <!-- Generator: Sketch 3.3.3 (12081) - http://www.bohemiancoding.com/sketch -->
    <title>thunder</title>
    <desc>Created with Sketch.</desc>
    <defs></defs>
    <g id="Page-1" stroke="none" stroke-width="1" fill="none" fill-rule="evenodd" sketch:type="MSPage">
        <g id="thunder" sketch:type="MSArtboardGroup">
            <g id="03" sketch:type="MSLayerGroup" transform="translate(1.000000, 1.000000)">
                <rect id="Rectangle" sketch:type="MSShapeGroup" x="0" y="0" width="39" height="39"></rect>
                <path d="M18.9843295,24.18 L31.2537931,24.18 L31.2537931,24.1711721 C35.3862908,23.9741769 38.6772414,20.5049748 38.6772414,16.2541935 C38.6772414,11.8768915 35.1874708,8.3283871 30.8826207,8.3283871 C30.5132976,8.3283871 30.1499737,8.35450524 29.7943381,8.40502413 C28.1672025,3.95240678 23.9504986,0.78 19.0051034,0.78 C12.7745172,0.78 7.7005741,5.8155243 7.50463185,12.1025835 C7.50267433,12.1025816 7.50071659,12.1025806 7.49875862,12.1025806 C4.2188728,12.1025806 1.56,14.8062031 1.56,18.1412903 C1.56,21.4763776 4.2188728,24.18 7.49875862,24.18 L7.49876423,24.18 L14.4343802,24.18 L15.6790253,19.3167053 L20.4774183,19.3167053 L18.9843295,24.18 L18.9843295,24.18 Z" id="cloud" stroke="#777677" stroke-width="4" stroke-linecap="round" stroke-linejoin="round" sketch:type="MSShapeGroup"></path>
                <g id="rain" transform="translate(3.120000, 21.060000)" fill="#777677" sketch:type="MSShapeGroup">
                    <rect id="1" x="1.56" y="4.68" width="3.12" height="7.8" rx="8"></rect>
                    <rect id="2" x="4.68" y="10.92" width="3.12" height="5.46" rx="8"></rect>
                    <rect id="3" x="21.06" y="-5.55111512e-15" width="3.12" height="17.16" rx="8"></rect>
                    <rect id="4" x="26.52" y="5.46" width="3.12" height="8.58" rx="8"></rect>
                </g>
                <path d="M18.2617056,26.5337333 L20.4774183,19.3167053 L15.6790253,19.3167053 L13.4936776,27.8556779 L15.5433014,27.8556779 L14.8023302,35.0727059 L20.4774183,26.5337333 L18.2617056,26.5337333 Z" id="thunder" stroke="#777677" stroke-width="3" stroke-linecap="round" stroke-linejoin="round" sketch:type="MSShapeGroup"></path>
            </g>
        </g>
    </g>
</svg>